<?xml version="1.0" encoding="UTF-8" standalone="no"?>
<!-- Created with Inkscape (http://www.inkscape.org/) -->

<svg
   xmlns:osb="http://www.openswatchbook.org/uri/2009/osb"
   xmlns:dc="http://purl.org/dc/elements/1.1/"
   xmlns:cc="http://creativecommons.org/ns#"
   xmlns:rdf="http://www.w3.org/1999/02/22-rdf-syntax-ns#"
   xmlns:svg="http://www.w3.org/2000/svg"
   xmlns="http://www.w3.org/2000/svg"
   xmlns:xlink="http://www.w3.org/1999/xlink"
   xmlns:sodipodi="http://sodipodi.sourceforge.net/DTD/sodipodi-0.dtd"
   xmlns:inkscape="http://www.inkscape.org/namespaces/inkscape"
   width="256"
   height="256"
   id="svg2"
   version="1.1"
   inkscape:version="0.48.0 r9654"
   sodipodi:docname="RoundButtons.svg"
   inkscape:export-filename="/home/klutsh/Desktop/buttons/L2.png"
   inkscape:export-xdpi="14.06"
   inkscape:export-ydpi="14.06">
  <defs
     id="defs4">
    <linearGradient
       id="linearGradient3853">
      <stop
         id="stop3855"
         offset="0"
         style="stop-color:#b7b7b7;stop-opacity:0.55" />
      <stop
         style="stop-color:#757575;stop-opacity:0.49803922;"
         offset="0.50413269"
         id="stop3857" />
      <stop
         id="stop3859"
         offset="1"
         style="stop-color:#333333;stop-opacity:0;" />
    </linearGradient>
    <linearGradient
       id="linearGradient3811">
      <stop
         id="stop3813"
         offset="0"
         style="stop-color:#e6e6f9;stop-opacity:1;" />
      <stop
         style="stop-color:#000000;stop-opacity:1;"
         offset="0.04812933"
         id="stop3815" />
      <stop
         id="stop3817"
         offset="1"
         style="stop-color:#000000;stop-opacity:1;" />
    </linearGradient>
    <linearGradient
       id="linearGradient3921">
      <stop
         style="stop-color:#e6e6f9;stop-opacity:1;"
         offset="0"
         id="stop3923" />
      <stop
         id="stop3937"
         offset="0.17032337"
         style="stop-color:#000000;stop-opacity:1;" />
      <stop
         style="stop-color:#000000;stop-opacity:1;"
         offset="1"
         id="stop3925" />
    </linearGradient>
    <linearGradient
       id="linearGradient3907">
      <stop
         style="stop-color:#b7b7b7;stop-opacity:0.55"
         offset="0"
         id="stop3909" />
      <stop
         id="stop3915"
         offset="0.41839224"
         style="stop-color:#757575;stop-opacity:0.49803922;" />
      <stop
         style="stop-color:#333333;stop-opacity:0;"
         offset="1"
         id="stop3911" />
    </linearGradient>
    <linearGradient
       id="linearGradient3825"
       osb:paint="solid">
      <stop
         style="stop-color:#aab5e6;stop-opacity:1;"
         offset="0"
         id="stop3827" />
    </linearGradient>
    <linearGradient
       id="linearGradient3817">
      <stop
         style="stop-color:#80aab9;stop-opacity:1;"
         offset="0"
         id="stop3819" />
      <stop
         style="stop-color:#285f87;stop-opacity:1;"
         offset="1"
         id="stop3821" />
    </linearGradient>
    <linearGradient
       id="linearGradient3789">
      <stop
         style="stop-color:#c6e3e8;stop-opacity:1;"
         offset="0"
         id="stop3791" />
      <stop
         id="stop3764"
         offset="0.46380392"
         style="stop-color:#677b7f;stop-opacity:1;" />
      <stop
         style="stop-color:#000000;stop-opacity:1;"
         offset="1"
         id="stop3793" />
    </linearGradient>
    <linearGradient
       id="linearGradient3779">
      <stop
         style="stop-color:#000000;stop-opacity:1;"
         offset="0"
         id="stop3781" />
      <stop
         style="stop-color:#000000;stop-opacity:0;"
         offset="1"
         id="stop3783" />
    </linearGradient>
    <filter
       inkscape:collect="always"
       id="filter3788">
      <feGaussianBlur
         inkscape:collect="always"
         stdDeviation="3.4237479"
         id="feGaussianBlur3790" />
    </filter>
    <filter
       color-interpolation-filters="sRGB"
       inkscape:collect="always"
       id="filter3798-1">
      <feGaussianBlur
         inkscape:collect="always"
         stdDeviation="0.91172844"
         id="feGaussianBlur3800-1" />
    </filter>
    <radialGradient
       inkscape:collect="always"
       xlink:href="#linearGradient3789-9"
       id="radialGradient3795-6"
       cx="40.592171"
       cy="63.71841"
       fx="40.592171"
       fy="63.71841"
       r="114"
       gradientTransform="matrix(-0.40904102,1.7634134,-1.7444983,-0.40643019,214.06013,-16.803733)"
       gradientUnits="userSpaceOnUse" />
    <linearGradient
       id="linearGradient3789-9">
      <stop
         style="stop-color:#c6e3e8;stop-opacity:1;"
         offset="0"
         id="stop3791-1" />
      <stop
         id="stop3764-5"
         offset="0.46380392"
         style="stop-color:#677b7f;stop-opacity:1;" />
      <stop
         style="stop-color:#000000;stop-opacity:1;"
         offset="1"
         id="stop3793-6" />
    </linearGradient>
    <radialGradient
       inkscape:collect="always"
       xlink:href="#linearGradient3907"
       id="radialGradient3919"
       cx="48.282253"
       cy="179.09448"
       fx="48.282253"
       fy="179.09448"
       r="115.35974"
       gradientTransform="matrix(0.00167155,0.99231685,-0.99997271,0.00169184,255.53338,1.5126196)"
       gradientUnits="userSpaceOnUse" />
    <linearGradient
       inkscape:collect="always"
       xlink:href="#linearGradient3921"
       id="linearGradient3935"
       x1="56.507839"
       y1="30.805689"
       x2="157.90054"
       y2="197.31247"
       gradientUnits="userSpaceOnUse" />
    <linearGradient
       inkscape:collect="always"
       xlink:href="#linearGradient3811"
       id="linearGradient3809"
       x1="86.242889"
       y1="32.340538"
       x2="133.20459"
       y2="188.84055"
       gradientUnits="userSpaceOnUse" />
    <linearGradient
       inkscape:collect="always"
       xlink:href="#linearGradient3811-1"
       id="linearGradient3809-9"
       x1="86.242889"
       y1="32.340538"
       x2="133.20459"
       y2="188.84055"
       gradientUnits="userSpaceOnUse" />
    <linearGradient
       id="linearGradient3811-1">
      <stop
         id="stop3813-7"
         offset="0"
         style="stop-color:#e6e6f9;stop-opacity:1;" />
      <stop
         style="stop-color:#000000;stop-opacity:1;"
         offset="0.04812933"
         id="stop3815-0" />
      <stop
         id="stop3817-6"
         offset="1"
         style="stop-color:#000000;stop-opacity:1;" />
    </linearGradient>
    <linearGradient
       inkscape:collect="always"
       xlink:href="#linearGradient3853"
       id="linearGradient3851"
       x1="51.242889"
       y1="16.84053"
       x2="65.70459"
       y2="67.84053"
       gradientUnits="userSpaceOnUse" />
  </defs>
  <sodipodi:namedview
     id="base"
     pagecolor="#ffffff"
     bordercolor="#666666"
     borderopacity="1.0"
     inkscape:pageopacity="0.0"
     inkscape:pageshadow="2"
     inkscape:zoom="2"
     inkscape:cx="26"
     inkscape:cy="128.00001"
     inkscape:document-units="px"
     inkscape:current-layer="layer4"
     showgrid="false"
     showguides="true"
     inkscape:window-width="1920"
     inkscape:window-height="977"
     inkscape:window-x="0"
     inkscape:window-y="24"
     inkscape:window-maximized="1" />
  <metadata
     id="metadata7">
    <rdf:RDF>
      <cc:Work
         rdf:about="">
        <dc:format>image/svg+xml</dc:format>
        <dc:type
           rdf:resource="http://purl.org/dc/dcmitype/StillImage" />
        <dc:title></dc:title>
      </cc:Work>
    </rdf:RDF>
  </metadata>
  <g
     inkscape:label="RoundBack"
     inkscape:groupmode="layer"
     id="layer1"
     transform="translate(0,-796.36218)"
     style="display:inline">
    <path
       transform="matrix(1.0185885,0,0,1.0163596,-1.870033,794.01405)"
       d="m 241.5,128.25 a 114,114.25 0 1 1 -228,0 114,114.25 0 1 1 228,0 z"
       sodipodi:ry="114.25"
       sodipodi:rx="114"
       sodipodi:cy="128.25"
       sodipodi:cx="127.5"
       id="path3774"
       style="fill:#000000;fill-opacity:1;fill-rule:evenodd;stroke:none;stroke-width:2.71948123;marker-start:none;filter:url(#filter3788)"
       sodipodi:type="arc" />
    <path
       sodipodi:type="arc"
       style="fill:#333333;fill-opacity:1;fill-rule:evenodd;stroke:url(#linearGradient3935);stroke-width:2.71948123;stroke-linecap:butt;stroke-linejoin:round;stroke-miterlimit:4;stroke-opacity:1;stroke-dasharray:none;marker-start:none"
       id="path3009"
       sodipodi:cx="127.5"
       sodipodi:cy="128.25"
       sodipodi:rx="114"
       sodipodi:ry="114.25"
       d="m 241.5,128.25 a 114,114.25 0 1 1 -228,0 114,114.25 0 1 1 228,0 z"
       transform="matrix(1.0185885,0,0,1.0163596,-1.870033,794.01405)" />
  </g>
  <g
     inkscape:groupmode="layer"
     id="layer9"
     inkscape:label="SquareBack"
     style="display:none"
     sodipodi:insensitive="true">
    <rect
       style="fill:#333333;fill-opacity:1;fill-rule:evenodd;stroke:url(#linearGradient3809);stroke-width:1.95426023;stroke-linecap:butt;stroke-linejoin:round;stroke-miterlimit:4;stroke-opacity:1;stroke-dasharray:none"
       id="rect3033"
       width="232.50745"
       height="233.07465"
       x="11.720016"
       y="11.303213" />
  </g>
  <g
     inkscape:groupmode="layer"
     id="layer2"
     inkscape:label="Cross"
     style="display:none"
     sodipodi:insensitive="true">
    <path
       transform="matrix(0.92233513,0,0,0.92233513,9.9411031,9.941097)"
       d="m 50.46875,36.8125 a 5.6305278,5.6305278 0 0 0 -3.875,1.65625 l -8.125,8.125 a 5.6305278,5.6305278 0 0 0 0,7.9375 L 111.9375,128 38.46875,201.46875 a 5.6305278,5.6305278 0 0 0 0,7.9375 l 8.125,8.125 a 5.6305278,5.6305278 0 0 0 7.9375,0 L 128,144.0625 l 73.46875,73.46875 a 5.6305278,5.6305278 0 0 0 7.9375,0 l 8.125,-8.125 a 5.6305278,5.6305278 0 0 0 0,-7.9375 L 144.0625,128 217.53125,54.53125 a 5.6305278,5.6305278 0 0 0 0,-7.9375 l -8.125,-8.125 a 5.6305278,5.6305278 0 0 0 -7.9375,0 L 128,111.9375 54.53125,38.46875 a 5.6305278,5.6305278 0 0 0 -4.0625,-1.65625 z"
       id="path3792"
       style="fill:#000000;fill-opacity:1;fill-rule:evenodd;stroke:none;display:inline;filter:url(#filter3798-1)"
       inkscape:original="M 50.5625 42.4375 L 42.4375 50.5625 L 119.875 128 L 42.4375 205.4375 L 50.5625 213.5625 L 128 136.125 L 205.4375 213.5625 L 213.5625 205.4375 L 136.125 128 L 213.5625 50.5625 L 205.4375 42.4375 L 128 119.875 L 50.5625 42.4375 z "
       inkscape:radius="5.6299648"
       sodipodi:type="inkscape:offset" />
    <path
       sodipodi:type="inkscape:offset"
       inkscape:radius="4.7593727"
       inkscape:original="M 50.5625 42.4375 L 42.4375 50.5625 L 119.875 128 L 42.4375 205.4375 L 50.5625 213.5625 L 128 136.125 L 205.4375 213.5625 L 213.5625 205.4375 L 136.125 128 L 213.5625 50.5625 L 205.4375 42.4375 L 128 119.875 L 50.5625 42.4375 z "
       style="fill:#5ca4df;fill-opacity:1;fill-rule:evenodd;stroke:#000000;stroke-width:1.62630689;stroke-linejoin:round;stroke-miterlimit:4;stroke-opacity:1;stroke-dasharray:none"
       id="path3849"
       d="m 50.5,37.6875 a 4.7598486,4.7598486 0 0 0 -3.3125,1.375 l -8.125,8.125 a 4.7598486,4.7598486 0 0 0 0,6.75 L 113.125,128 39.0625,202.0625 a 4.7598486,4.7598486 0 0 0 0,6.75 l 8.125,8.125 a 4.7598486,4.7598486 0 0 0 6.75,0 L 128,142.875 l 74.0625,74.0625 a 4.7598486,4.7598486 0 0 0 6.75,0 l 8.125,-8.125 a 4.7598486,4.7598486 0 0 0 0,-6.75 L 142.875,128 216.9375,53.9375 a 4.7598486,4.7598486 0 0 0 0,-6.75 l -8.125,-8.125 a 4.7598486,4.7598486 0 0 0 -6.75,0 L 128,113.125 53.9375,39.0625 A 4.7598486,4.7598486 0 0 0 50.5,37.6875 z"
       transform="matrix(0.92233512,0,0,0.92233512,9.9411028,9.9411043)" />
  </g>
  <g
     inkscape:groupmode="layer"
     id="layer3"
     inkscape:label="circle"
     sodipodi:insensitive="true"
     style="display:none">
    <path
       style="fill:#cf6565;fill-opacity:1;fill-rule:evenodd;stroke:#000000;stroke-width:1.5;stroke-linecap:butt;stroke-linejoin:round;stroke-miterlimit:4;stroke-opacity:1;stroke-dasharray:none;marker-start:none;display:inline"
       d="M 128,27.083205 C 72.265794,27.083205 27.083205,72.265796 27.083205,128 27.083205,183.73421 72.265794,228.91679 128,228.91679 183.73421,228.91679 228.91679,183.73421 228.91679,128 228.91679,72.265796 183.73421,27.083205 128,27.083205 z m 0,16.651415 c 46.54215,0 84.26538,37.723235 84.26538,84.26538 0,46.54215 -37.72323,84.26538 -84.26538,84.26538 -46.542147,0 -84.26538,-37.72323 -84.26538,-84.26538 0,-46.542145 37.723233,-84.26538 84.26538,-84.26538 z"
       id="path3009-9"
       inkscape:connector-curvature="0" />
  </g>
  <g
     inkscape:groupmode="layer"
     id="layer5"
     inkscape:label="triangle"
     style="display:none"
     sodipodi:insensitive="true">
    <path
       sodipodi:type="inkscape:offset"
       inkscape:radius="4.2164464"
       inkscape:original="M 128.78125 10.53125 A 0.30217933 0.30217933 0 0 0 128.625 10.6875 L 29.1875 191.40625 A 0.30217933 0.30217933 0 0 0 29.15625 191.625 A 0.30217933 0.30217933 0 0 0 29.1875 191.71875 A 0.30217933 0.30217933 0 0 0 29.3125 191.84375 A 0.30217933 0.30217933 0 0 0 29.4375 191.875 L 228.96875 191.8125 A 0.30217933 0.30217933 0 0 0 229.125 191.75 A 0.30217933 0.30217933 0 0 0 229.21875 191.65625 A 0.30217933 0.30217933 0 0 0 229.25 191.59375 A 0.30217933 0.30217933 0 0 0 229.21875 191.34375 L 129.125 10.6875 A 0.30217933 0.30217933 0 0 0 129.03125 10.59375 A 0.30217933 0.30217933 0 0 0 128.96875 10.5625 A 0.30217933 0.30217933 0 0 0 128.84375 10.53125 A 0.30217933 0.30217933 0 0 0 128.78125 10.53125 z M 129.03125 41.28125 L 202.4375 175.46875 L 55.28125 175.6875 L 129.03125 41.28125 z "
       style="fill:#00806b;fill-opacity:1;fill-rule:evenodd;stroke:#000000;stroke-width:1.58056056;stroke-miterlimit:4;stroke-opacity:1;stroke-dasharray:none"
       id="path3822"
       d="m 128.8125,6.3125 c 0.13517,0 -0.6032,0.045229 -0.46875,0.03125 a 4.216868,4.216868 0 0 0 -1.25,0.3125 c 0.22385,-0.097581 -0.95178,0.5437762 -0.75,0.40625 0.20178,-0.1375262 -0.79767,0.7351687 -0.625,0.5625 0.17267,-0.1726687 -0.70003,0.8267808 -0.5625,0.625 0.0744,-0.1091512 -0.077,0.151753 -0.21875,0.40625 C 124.81722,8.8722251 124.7052,9.1027588 124.75,9 L 25.53125,189.3125 c 0.004,-0.007 -0.0026,0.0353 0,0.0312 L 25.5,189.375 c 0.01854,0.001 -0.384957,0.93094 -0.3125,0.71875 0.07891,-0.23109 -0.253284,1.05424 -0.21875,0.8125 0.03453,-0.24174 -0.0202,1.08769 -0.03125,0.84375 -0.0069,-0.15291 0.02332,0.2246 0.0625,0.53125 -0.01037,-0.0653 0.03292,0.10642 0.0625,0.21875 0.01194,0.0453 -0.01403,0.0375 0,0.0937 0.06386,0.25579 0.132161,0.52148 0.09375,0.40625 -0.06777,-0.20331 0.412602,0.87699 0.3125,0.6875 -0.09089,-0.171 0.458929,0.71818 0.34375,0.5625 -0.115179,-0.15568 0.574434,0.66818 0.4375,0.53125 -0.136934,-0.13693 0.686928,0.55268 0.53125,0.4375 -0.155678,-0.11518 0.733499,0.43464 0.5625,0.34375 a 4.216868,4.216868 0 0 0 0.09375,0.0625 c -0.125602,-0.0622 0.569047,0.23588 0.4375,0.1875 -0.131547,-0.0484 0.604726,0.19024 0.46875,0.15625 -0.135976,-0.034 0.607586,0.11297 0.46875,0.0937 -0.138836,-0.0192 0.640097,0.0355 0.5,0.0312 a 4.216868,4.216868 0 0 0 0.125,0 l 199.53125,-0.0625 A 4.216868,4.216868 0 0 0 229.375,196 c -0.1832,0.0181 0.80384,-0.1374 0.625,-0.0937 -0.17884,0.0437 0.79592,-0.25587 0.625,-0.1875 -0.17092,0.0684 0.72211,-0.37298 0.5625,-0.28125 -0.0553,0.0318 0.0864,-0.0554 0.1875,-0.125 0.19068,-0.1314 0.4386,-0.32402 0.34375,-0.25 0.01,-0.006 0.0783,-0.0439 0.0625,-0.0312 -0.11267,0.0901 0.47703,-0.44578 0.375,-0.34375 -0.10203,0.10203 0.4339,-0.48767 0.34375,-0.375 -0.0775,0.0969 0.20589,-0.29041 0.25,-0.34375 0.007,-0.009 0.042,-0.0796 0.0312,-0.0625 0.0263,-0.057 0.27748,-0.5237 0.21875,-0.40625 -0.0676,0.13523 0.27028,-0.6109 0.21875,-0.46875 a 4.216868,4.216868 0 0 0 0.0625,-0.15625 c -0.0422,0.13376 0.15261,-0.60627 0.125,-0.46875 -0.0276,0.13752 0.0752,-0.63969 0.0625,-0.5 -0.0127,0.13969 -0.002,-0.60899 0,-0.46875 0.002,0.14024 -0.0487,-0.63918 -0.0312,-0.5 0.0174,0.13918 -0.0947,-0.60526 -0.0625,-0.46875 0.0322,0.13651 -0.20294,-0.60102 -0.15625,-0.46875 0.0467,0.13227 -0.24811,-0.56399 -0.1875,-0.4375 0.0346,0.0723 -0.0423,-0.0975 -0.125,-0.25 l -0.0937,-0.1875 -100,-180.46875 a 4.216868,4.216868 0 0 0 -0.125,-0.21875 c 0.0772,0.1219261 -0.3714,-0.5189156 -0.28125,-0.40625 0.0901,0.1126656 -0.44578,-0.4770287 -0.34375,-0.375 0.10203,0.1020287 -0.48767,-0.4338953 -0.375,-0.34375 0.0969,0.077525 -0.29041,-0.2058949 -0.34375,-0.25 0.0166,0.010887 -0.0539,-0.027268 -0.0625,-0.03125 -0.057,-0.026302 -0.5237,-0.2774763 -0.40625,-0.21875 0.0109,0.00543 -0.0315,-0.032007 -0.0312,-0.03125 0.1256,0.062202 -0.56905,-0.2358767 -0.4375,-0.1875 0.13155,0.048377 -0.60473,-0.1902439 -0.46875,-0.15625 0.13598,0.033994 -0.60759,-0.1129692 -0.46875,-0.09375 0.0519,0.00718 -0.0819,0.00816 -0.1875,0 0.0898,0.00934 -0.14437,-0.020958 -0.3125,-0.03125 -0.0835,-0.00511 -0.20111,0 -0.15625,0 z m 0.21875,43.71875 66.3125,121.21875 -132.9375,0.21875 66.625,-121.4375 z"
       transform="matrix(0.88239987,0,0,0.88239987,13.990365,14.698305)" />
  </g>
  <g
     inkscape:groupmode="layer"
     id="layer6"
     inkscape:label="square"
     style="display:inline"
     sodipodi:insensitive="true">
    <path
       sodipodi:type="inkscape:offset"
       inkscape:radius="3"
       inkscape:original="M 51.03125 51.03125 L 51.03125 204.96875 L 204.96875 204.96875 L 204.96875 51.03125 L 51.03125 51.03125 z M 64.375 64.375 L 191.625 64.375 L 191.625 191.625 L 64.375 191.625 L 64.375 64.375 z "
       style="fill:#ff8080;fill-opacity:1;fill-rule:evenodd;stroke:#000000;stroke-width:1.5568949;stroke-linecap:butt;stroke-linejoin:round;stroke-miterlimit:4;stroke-opacity:1;stroke-dasharray:none"
       id="path3820"
       d="m 50.71875,48.03125 a 3.0003,3.0003 0 0 0 -2.6875,3 l 0,153.9375 a 3.0003,3.0003 0 0 0 3,3 l 153.9375,0 a 3.0003,3.0003 0 0 0 3,-3 l 0,-153.9375 a 3.0003,3.0003 0 0 0 -3,-3 l -153.9375,0 a 3.0003,3.0003 0 0 0 -0.3125,0 z M 67.375,67.375 l 121.25,0 0,121.25 -121.25,0 0,-121.25 z"
       transform="matrix(0.96345619,0,0,0.96345619,4.6776291,4.6795577)" />
  </g>
  <g
     inkscape:groupmode="layer"
     id="layer7"
     inkscape:label="R1"
     style="display:none"
     sodipodi:insensitive="true">
    <text
       xml:space="preserve"
       style="font-size:144px;font-style:normal;font-variant:normal;font-weight:normal;font-stretch:normal;text-align:start;line-height:100%;letter-spacing:0px;word-spacing:0px;writing-mode:lr-tb;text-anchor:start;fill:#ffffff;fill-opacity:1;stroke:#000000;stroke-width:2;stroke-miterlimit:4;stroke-opacity:1;stroke-dasharray:none;font-family:Arial Black;-inkscape-font-specification:'Arial Black,'"
       x="24"
       y="175"
       id="text3027"
       sodipodi:linespacing="100%"><tspan
         sodipodi:role="line"
         id="tspan3029"
         x="24"
         y="175">R1</tspan></text>
  </g>
  <g
     style="display:none"
     inkscape:label="R2"
     id="g3873"
     inkscape:groupmode="layer"
     sodipodi:insensitive="true">
    <text
       sodipodi:linespacing="100%"
       id="text3875"
       y="175"
       x="24"
       style="font-size:144px;font-style:normal;font-variant:normal;font-weight:normal;font-stretch:normal;text-align:start;line-height:100%;letter-spacing:0px;word-spacing:0px;writing-mode:lr-tb;text-anchor:start;fill:#ffffff;fill-opacity:1;stroke:#000000;stroke-width:2;stroke-miterlimit:4;stroke-opacity:1;stroke-dasharray:none;font-family:Arial Black;-inkscape-font-specification:'Arial Black,'"
       xml:space="preserve"><tspan
         y="175"
         x="24"
         id="tspan3877"
         sodipodi:role="line">R2</tspan></text>
  </g>
  <g
     inkscape:groupmode="layer"
     id="g3879"
     inkscape:label="R3"
     style="display:none"
     sodipodi:insensitive="true">
    <text
       xml:space="preserve"
       style="font-size:144px;font-style:normal;font-variant:normal;font-weight:normal;font-stretch:normal;text-align:start;line-height:100%;letter-spacing:0px;word-spacing:0px;writing-mode:lr-tb;text-anchor:start;fill:#ffffff;fill-opacity:1;stroke:#000000;stroke-width:2;stroke-miterlimit:4;stroke-opacity:1;stroke-dasharray:none;font-family:Arial Black;-inkscape-font-specification:'Arial Black,'"
       x="24"
       y="175"
       id="text3881"
       sodipodi:linespacing="100%"><tspan
         sodipodi:role="line"
         id="tspan3883"
         x="24"
         y="175">R3</tspan></text>
  </g>
  <g
     style="display:none"
     inkscape:label="L1"
     id="g3861"
     inkscape:groupmode="layer"
     sodipodi:insensitive="true">
    <text
       sodipodi:linespacing="100%"
       id="text3863"
       y="175"
       x="32"
       style="font-size:144px;font-style:normal;font-variant:normal;font-weight:normal;font-stretch:normal;text-align:start;line-height:100%;letter-spacing:0px;word-spacing:0px;writing-mode:lr-tb;text-anchor:start;fill:#ffffff;fill-opacity:1;stroke:#000000;stroke-width:2;stroke-miterlimit:4;stroke-opacity:1;stroke-dasharray:none;display:inline;font-family:Arial Black;-inkscape-font-specification:'Arial Black,'"
       xml:space="preserve"><tspan
         y="175"
         x="32"
         id="tspan3865"
         sodipodi:role="line">L1</tspan></text>
  </g>
  <g
     inkscape:groupmode="layer"
     id="g3867"
     inkscape:label="L2"
     style="display:none"
     sodipodi:insensitive="true">
    <text
       xml:space="preserve"
       style="font-size:144px;font-style:normal;font-variant:normal;font-weight:normal;font-stretch:normal;text-align:start;line-height:100%;letter-spacing:0px;word-spacing:0px;writing-mode:lr-tb;text-anchor:start;fill:#ffffff;fill-opacity:1;stroke:#000000;stroke-width:2;stroke-miterlimit:4;stroke-opacity:1;stroke-dasharray:none;display:inline;font-family:Arial Black;-inkscape-font-specification:'Arial Black,'"
       x="32"
       y="175"
       id="text3869"
       sodipodi:linespacing="100%"><tspan
         sodipodi:role="line"
         id="tspan3871"
         x="32"
         y="175">L2</tspan></text>
  </g>
  <g
     inkscape:groupmode="layer"
     id="layer8"
     inkscape:label="L3"
     sodipodi:insensitive="true"
     style="display:none">
    <text
       xml:space="preserve"
       style="font-size:144px;font-style:normal;font-variant:normal;font-weight:normal;font-stretch:normal;text-align:start;line-height:100%;letter-spacing:0px;word-spacing:0px;writing-mode:lr-tb;text-anchor:start;fill:#ffffff;fill-opacity:1;stroke:#000000;stroke-width:2;stroke-miterlimit:4;stroke-opacity:1;stroke-dasharray:none;display:inline;font-family:Arial Black;-inkscape-font-specification:'Arial Black,'"
       x="32"
       y="175"
       id="text3027-1"
       sodipodi:linespacing="100%"><tspan
         sodipodi:role="line"
         id="tspan3029-3"
         x="32"
         y="175">L3</tspan></text>
  </g>
  <g
     inkscape:groupmode="layer"
     id="layer4"
     inkscape:label="RoundHighlight"
     style="display:inline"
     sodipodi:insensitive="true">
    <path
       sodipodi:type="arc"
       style="opacity:0.76666667;fill:url(#radialGradient3919);fill-opacity:1;fill-rule:evenodd;stroke:none;stroke-width:2.71948123;marker-start:none;display:inline"
       id="path3009-1"
       sodipodi:cx="127.5"
       sodipodi:cy="128.25"
       sodipodi:rx="114"
       sodipodi:ry="114.25"
       d="m 241.5,128.25 a 114,114.25 0 1 1 -228,0 114,114.25 0 1 1 228,0 z"
       transform="matrix(1.0185885,0,0,1.0163596,-1.8700328,-2.3481344)" />
  </g>
  <g
     inkscape:groupmode="layer"
     id="layer10"
     inkscape:label="SquareHighlight"
     style="display:none"
     sodipodi:insensitive="true">
    <rect
       style="fill:url(#linearGradient3851);fill-opacity:1;fill-rule:evenodd;stroke:none;display:inline"
       id="rect3033-0"
       width="232.50745"
       height="233.07465"
       x="11.720016"
       y="11.30321" />
  </g>
</svg>
